<svg width="30" height="30" viewBox="0 0 30 30" fill="none" xmlns="http://www.w3.org/2000/svg">
<path d="M15 0C6.729 0 0 6.729 0 15V21.2145C0 22.7505 1.3455 24 3 24H4.5C4.89782 24 5.27936 23.842 5.56066 23.5607C5.84196 23.2794 6 22.8978 6 22.5V14.7855C6 14.3877 5.84196 14.0061 5.56066 13.7248C5.27936 13.4435 4.89782 13.2855 4.5 13.2855H3.138C3.972 7.4805 8.967 3 15 3C21.033 3 26.028 7.4805 26.862 13.2855H25.5C25.1022 13.2855 24.7206 13.4435 24.4393 13.7248C24.158 14.0061 24 14.3877 24 14.7855V24C24 25.6545 22.6545 27 21 27H18V25.5H12V30H21C24.309 30 27 27.309 27 24C28.6545 24 30 22.7505 30 21.2145V15C30 6.729 23.271 0 15 0Z" fill="#FFC22C"/>
<path d="M10.2899 8.35961V8.37182H11.2747V8.35555C11.2747 7.77365 11.7304 7.34232 12.3408 7.34232C12.9227 7.34232 13.3581 7.72889 13.3581 8.21312C13.3581 8.6526 13.175 8.95371 12.5076 9.63327L10.3469 11.7818V12.4898H14.473V11.6312H11.7467V11.6109L13.1994 10.1745C13.9685 9.39726 14.3835 8.86826 14.3835 8.16836C14.3835 7.21618 13.5453 6.5 12.3733 6.5C11.1567 6.5 10.2899 7.27721 10.2899 8.35961Z" fill="#FFC22C"/>
<path fill-rule="evenodd" clip-rule="evenodd" d="M17.9196 12.4898H18.9206V11.3789H19.7101V10.5203H18.9206V6.61801H17.4273C16.1536 8.46948 15.4985 9.51526 14.9898 10.4756V11.3789H17.9196V12.4898ZM15.942 10.5163C16.41 9.63734 16.9715 8.7706 17.9196 7.39522H17.9359V10.5448H15.942V10.5163Z" fill="#FFC22C"/>
<path d="M14.4405 23.5H13.3418L15.9176 18.5071V18.4868H12.8657V17.6282H16.9512V18.503L14.4405 23.5Z" fill="#FFC22C"/>
<path d="M19.7101 14.4951H10.2899V15.3285H19.7101V14.4951Z" fill="#FFC22C"/>
</svg>
