<svg width="18" height="20" viewBox="0 0 18 20" fill="none" xmlns="http://www.w3.org/2000/svg">
<path d="M12 5.50024H12.5V5.00024V4.37524C12.5 3.41383 12.1181 2.4918 11.4383 1.81198L11.0847 2.16554L11.4383 1.81198C10.7584 1.13216 9.83641 0.750244 8.875 0.750244C7.91359 0.750244 6.99156 1.13216 6.31174 1.81198C5.63192 2.4918 5.25 3.41383 5.25 4.37524V5.00024V5.50024H5.75H12ZM12.75 5.00024V5.50024H13.25H17.125V17.5002C17.125 18.0307 16.9143 18.5394 16.5392 18.9145C16.1641 19.2895 15.6554 19.5002 15.125 19.5002H2.625C2.09457 19.5002 1.58586 19.2895 1.21079 18.9145C0.835714 18.5394 0.625 18.0307 0.625 17.5002V5.50024H4.5H5V5.00024V4.37524C5 3.34753 5.40826 2.36191 6.13496 1.63521C6.86166 0.908502 7.84729 0.500244 8.875 0.500244C9.90271 0.500244 10.8883 0.908502 11.615 1.63521C12.3417 2.36191 12.75 3.34753 12.75 4.37524V5.00024Z" stroke="#969696"/>
</svg>
