<svg width="401" height="301" viewBox="0 0 401 301" fill="none" xmlns="http://www.w3.org/2000/svg">
<path d="M26.7326 281.379C22.5889 281.241 19.873 278.662 19.8157 274.977C19.758 271.271 22.4494 268.487 26.54 268.405C32.7178 268.281 38.9012 268.295 45.0799 268.396C49.2252 268.463 51.9431 271.095 52.0021 274.782C52.0633 278.607 49.2433 281.271 44.8695 281.386L26.7326 281.379Z" fill="#FFC22C"/>
<path d="M65.2408 281.386H71.2982C75.1397 281.116 77.7485 278.512 77.8059 274.98C77.8659 271.281 75.1595 268.583 71.076 268.382H65.4393C61.2916 268.547 58.5813 271.088 58.5213 274.779C58.4612 278.477 61.161 281.146 65.2408 281.386Z" fill="#FFC22C"/>
<path fill-rule="evenodd" clip-rule="evenodd" d="M381.035 180.733C381.035 204.779 381.034 228.826 381.032 252.872C381.03 259.797 379.01 261.837 372.154 261.838C335.063 261.844 297.972 261.844 260.88 261.838C254.028 261.837 252.021 259.803 252.02 252.862C252.014 204.498 252.014 156.133 252.02 107.769C252.021 100.829 254.018 98.8122 260.89 98.811C297.981 98.8048 335.073 98.8048 372.164 98.811C379.022 98.8122 381.03 100.843 381.032 107.779C381.04 132.097 381.041 156.415 381.035 180.733ZM265.097 248.509H367.814V112.068H265.097V248.509Z" fill="#FFC22C"/>
<path d="M306.471 280.254C307.522 280.974 308.76 281.363 310.029 281.372C311.727 281.368 313.356 280.69 314.565 279.484C315.773 278.277 316.465 276.639 316.491 274.922C316.499 273.639 316.13 272.382 315.431 271.311C314.733 270.24 313.736 269.402 312.566 268.903C311.397 268.405 310.108 268.268 308.861 268.51C307.615 268.752 306.467 269.363 305.564 270.264C304.661 271.166 304.042 272.318 303.787 273.575C303.531 274.832 303.649 276.137 304.127 277.326C304.605 278.515 305.421 279.533 306.471 280.254Z" fill="#FFC22C"/>
<path fill-rule="evenodd" clip-rule="evenodd" d="M39.1355 144.458L39.1384 29.3704C39.143 11.7258 49.7913 0.991229 67.2844 0.990301L333.377 0.990234C351.142 0.99113 361.671 11.6503 361.681 29.6287L361.683 79.2572C361.683 79.2572 371.631 79.218 374.435 79.2572C389.032 79.4614 400.322 90.6359 400.345 105.372C400.434 161.888 400.433 218.404 400.342 274.921C400.317 289.615 388.975 300.922 374.348 300.935C299.627 301.001 224.906 301.008 150.185 300.956C144.669 300.955 142.402 298.599 142.361 292.988C142.318 287.282 142.298 281.575 142.369 275.87C142.432 270.805 144.796 268.432 149.839 268.38C154.318 268.334 158.797 268.344 163.393 268.355H163.396C165.409 268.359 167.445 268.364 169.513 268.364L172.707 255.531H116.547C116.547 257.45 116.549 259.354 116.551 261.247V261.259C116.555 265.372 116.559 269.435 116.543 273.498C116.475 289.811 105.564 300.925 89.4956 300.958C68.7996 301.001 48.1035 301 27.4074 300.957C11.5264 300.923 0.464524 289.818 0.443926 273.838C0.399908 239.738 0.400236 205.638 0.444713 171.538C0.466361 155.572 11.5493 144.528 27.447 144.46L39.1355 144.458ZM348.745 79.2441C348.762 63.0772 348.773 45.528 348.777 29.361C348.776 19.0706 343.85 14.0341 333.782 14.0336L66.8778 14.0343C57.067 14.0349 52.043 19.1426 52.0407 29.1121L52.0373 144.458L63.9557 144.448L90.0814 144.473C105.394 144.558 116.437 155.759 116.532 171.291C116.58 179.091 116.568 186.89 116.557 194.69C116.552 198.167 116.547 201.643 116.547 205.12V209.345H232.664L232.667 107.547C232.673 90.1178 243.349 79.2572 260.494 79.2481C288.314 79.2335 316.133 79.2321 343.952 79.2441H348.745ZM103.643 222.905C103.643 217.893 103.647 212.881 103.651 207.869C103.661 195.642 103.67 183.415 103.623 171.188C103.592 163.072 98.2091 157.659 90.2659 157.506C88.5322 157.31 86.7806 157.343 85.0554 157.605C84.3762 157.774 83.7377 158.08 83.1778 158.504C82.6179 158.928 82.148 159.461 81.7962 160.073C80.7042 162.746 79.82 165.506 78.9355 168.267C78.5387 169.506 78.1417 170.745 77.726 171.976C77.3347 173.505 76.4296 174.849 75.1659 175.777C73.9021 176.706 72.3584 177.161 70.7993 177.065C62.6085 177.046 54.4178 177.047 46.227 177.068C44.6685 177.175 43.1217 176.731 41.8517 175.812C40.5818 174.892 39.668 173.554 39.267 172.028C38.7598 170.529 38.2653 169.026 37.7708 167.523L37.77 167.52C36.9534 165.038 36.1367 162.556 35.263 160.094C34.9359 159.173 34.3462 157.936 33.5802 157.646C31.3046 156.778 28.8539 156.484 26.4405 156.789C24.027 157.095 21.7237 157.991 19.73 159.399C17.7364 160.808 16.1125 162.687 14.9993 164.874C13.886 167.06 13.3169 169.488 13.3413 171.947C13.3159 205.611 13.314 239.274 13.3356 272.938C13.3385 282.855 18.3776 287.916 28.2467 287.922C48.3879 287.935 68.5292 287.935 88.6704 287.923C98.7451 287.916 103.636 282.9 103.642 272.586C103.652 256.026 103.652 239.466 103.643 222.905ZM387.486 190.094C387.486 162.384 387.484 134.673 387.479 106.962C387.473 97.532 382.323 92.2968 373.053 92.2931C335.429 92.278 297.805 92.2776 260.181 92.2917C250.661 92.2947 245.572 97.4842 245.57 107.184L245.57 273.042C245.572 282.732 250.662 287.917 260.198 287.92C297.687 287.935 335.177 287.935 372.667 287.922C382.499 287.919 387.478 282.837 387.482 272.819C387.494 245.244 387.495 217.669 387.486 190.094ZM116.732 241.994H232.337V222.924H116.731L116.732 241.994ZM235.5 287.716C233.783 281.405 233.783 281.405 227.715 281.405H155.426V287.716H235.5ZM217.835 268.184L214.765 255.55H186.033L182.984 268.184H217.835ZM48.4617 157.629C49.1962 160.954 49.5487 162.549 50.5327 163.315C51.4404 164.021 52.8854 164.021 55.6635 164.021C57.6709 164.021 59.6783 164.021 61.6857 164.021C67.5078 164.02 67.5078 164.02 68.3163 157.629H48.4617ZM231.341 268.31H232.325V255.506H228.082L231.341 268.31Z" fill="#FFC22C"/>
</svg>
