<svg width="181" height="181" viewBox="0 0 181 181" fill="none" xmlns="http://www.w3.org/2000/svg">
<path d="M65.9014 46.9689C72.5283 40.3315 81.5283 36.5978 90.915 36.5857C100.302 36.595 109.302 40.3287 115.946 46.9667C122.573 53.6052 126.3 62.6052 126.317 71.9919C126.317 86.3735 115.7 94.9506 108.687 100.63C106.929 102.052 105.224 103.402 103.87 104.751C101.778 106.847 100.776 108.833 100.319 110.177C99.9678 111.182 99.915 111.827 99.915 111.889V117.586H81.915V111.583C81.915 110.521 82.1787 100.99 91.1611 92.0167C93.1475 90.1177 95.2217 88.3187 97.3838 86.6257C103.993 81.2797 108.317 77.3735 108.317 71.9919C108.317 62.3887 100.513 54.5857 90.915 54.5857C81.3174 54.5857 73.5127 62.3887 73.5127 71.9919H55.5127C55.5303 62.6052 59.2568 53.6063 65.9014 46.9689Z" fill="#E4A300"/>
<path d="M99.915 144.586V126.586H81.915V144.586H99.915Z" fill="#E4A300"/>
<path fill-rule="evenodd" clip-rule="evenodd" d="M0.915039 90.5857C0.915039 40.9599 41.292 0.585693 90.915 0.585693C140.538 0.585693 180.915 40.9599 180.915 90.5857C180.915 140.211 140.538 180.586 90.915 180.586C41.292 180.586 0.915039 140.211 0.915039 90.5857ZM18.915 90.5857C18.915 130.285 51.2236 162.586 90.915 162.586C130.606 162.586 162.915 130.285 162.915 90.5857C162.915 50.8866 130.606 18.5857 90.915 18.5857C51.2236 18.5857 18.915 50.8866 18.915 90.5857Z" fill="#E4A300"/>
</svg>
