<svg width="28" height="35" viewBox="0 0 28 35" fill="none" xmlns="http://www.w3.org/2000/svg">
<path d="M14.1755 35C11.7201 32.9055 9.44406 30.6094 7.37131 28.1355C4.2608 24.4204 0.567079 18.8876 0.567079 13.6153C0.56573 10.9227 1.36319 8.29019 2.85854 6.05097C4.35388 3.81176 6.4799 2.06648 8.96752 1.03601C11.4551 0.00553417 14.1925 -0.263809 16.8333 0.262063C19.4741 0.787936 21.8995 2.08539 23.8025 3.99021C25.0696 5.25164 26.0739 6.75183 26.7573 8.40397C27.4407 10.0561 27.7897 11.8274 27.784 13.6153C27.784 18.8876 24.0903 24.4204 20.9798 28.1355C18.907 30.6093 16.631 32.9055 14.1755 35ZM14.1755 7.78309C12.6287 7.78309 11.1453 8.39755 10.0516 9.4913C8.9578 10.585 8.34334 12.0685 8.34334 13.6153C8.34334 15.1621 8.9578 16.6455 10.0516 17.7393C11.1453 18.833 12.6287 19.4475 14.1755 19.4475C15.7223 19.4475 17.2058 18.833 18.2995 17.7393C19.3933 16.6455 20.0077 15.1621 20.0077 13.6153C20.0077 12.0685 19.3933 10.585 18.2995 9.4913C17.2058 8.39755 15.7223 7.78309 14.1755 7.78309Z" fill="#FFC22C"/>
</svg>
