<svg width="1365" height="440" viewBox="0 0 1365 440" fill="none" xmlns="http://www.w3.org/2000/svg">
<path d="M1210.5 103.319V105.778C1207.38 105.45 1203.89 105.942 1200.01 107.253C1196.25 108.564 1193.99 110.476 1193.24 112.989C1192.59 115.502 1192.27 121.456 1192.27 130.853V316.21C1192.27 326.262 1192.65 332.435 1193.4 334.73C1194.26 336.915 1195.82 338.772 1198.08 340.302C1200.44 341.722 1204.59 342.432 1210.5 342.432V344.727H1147.09V342.432C1155.05 342.432 1160 340.903 1161.93 337.844C1163.87 334.675 1164.84 327.573 1164.84 316.538V132.983C1164.84 121.511 1163.76 114.027 1161.61 110.53C1159.46 106.925 1154.62 105.341 1147.09 105.778V103.319H1210.5Z" fill="#414141" fill-opacity="0.85"/>
<path d="M984.283 105.778V103.319H1137.03V131.672H1134.57V130.525C1134.35 130.306 1134.24 129.978 1134.24 129.541C1132.06 121.238 1129 116.157 1125.06 114.3C1121.13 112.442 1115.12 111.514 1107.04 111.514H1029.19V217.877H1101.79C1108.02 217.877 1112.28 217.386 1114.57 216.402C1116.87 215.419 1118.18 213.234 1118.51 209.847H1120.8V232.955H1118.51C1118.51 227.383 1114.9 224.597 1107.69 224.597H1029.19V320.963C1029.19 330.032 1030.55 335.877 1033.29 338.499C1036.13 341.121 1040.93 342.432 1047.71 342.432V344.727H984.283V342.432C991.713 342.432 996.411 341.012 998.378 338.171C1000.34 335.331 1001.33 331.343 1001.33 326.207V127.575C1001.33 119.49 1000.18 113.863 997.886 110.694C995.592 107.417 991.057 105.778 984.283 105.778Z" fill="#414141" fill-opacity="0.85"/>
<path d="M927.524 103.319H974.218V105.777C967.118 105.995 962.203 107.525 959.472 110.364C956.742 113.095 955.377 118.939 955.377 127.895V344.727L762.866 142.641V321.225C762.866 326.905 763.303 331.11 764.176 333.841C765.05 336.571 766.306 338.428 767.945 339.411C769.583 340.394 773.679 341.377 780.233 342.36V344.654H733.866V342.36C742.167 342.36 747.301 340.886 749.267 337.937C751.342 334.988 752.38 327.943 752.38 316.802V153.454C752.38 139.145 750.359 127.458 746.318 118.392C742.386 109.327 733.211 105.122 718.793 105.777V103.319H764.176L945.055 295.994V125.601C945.055 116.426 943.416 110.856 940.139 108.89C936.863 106.815 932.657 105.777 927.524 105.777V103.319Z" fill="#414141" fill-opacity="0.85"/>
<path d="M709.896 103.319V105.778C706.776 105.45 703.28 105.942 699.408 107.253C695.643 108.564 693.384 110.476 692.631 112.989C691.985 115.502 691.663 121.456 691.663 130.853V316.21C691.663 326.262 692.039 332.435 692.792 334.73C693.653 336.915 695.212 338.772 697.471 340.302C699.838 341.722 703.979 342.432 709.896 342.432V344.727H646.483V342.432C654.443 342.432 659.391 340.903 661.328 337.844C663.264 334.675 664.232 327.573 664.232 316.538V132.983C664.232 121.511 663.156 114.027 661.005 110.53C658.853 106.925 654.013 105.341 646.483 105.778V103.319H709.896Z" fill="#414141" fill-opacity="0.85"/>
<path d="M1340.24 109.94L1351.54 139.652L1349.6 139.974C1349.6 139.867 1346.59 136.691 1340.56 130.447C1334.64 124.204 1327.8 119.413 1320.05 116.076C1312.41 112.631 1303.74 110.909 1294.05 110.909C1277.8 110.909 1264.88 115.592 1255.3 124.957C1245.83 134.215 1241.09 145.411 1241.09 158.544C1241.09 167.264 1243.3 174.907 1247.71 181.474C1252.23 187.933 1261.6 193.962 1275.81 199.559C1300.24 207.741 1316.93 213.931 1325.86 218.129C1334.91 222.22 1343.57 229.217 1351.86 239.121C1360.26 249.025 1364.46 261.728 1364.46 277.23C1364.46 283.689 1363.7 289.879 1362.2 295.799C1360.69 301.613 1358.27 307.264 1354.93 312.754C1351.59 318.137 1347.56 323.089 1342.82 327.61C1338.19 332.024 1333.45 335.415 1328.61 337.783C1323.77 340.044 1316.12 341.766 1305.68 342.951C1295.24 344.135 1288.35 344.727 1285.01 344.727H1221.55V275.615H1223.97C1224.19 298.545 1229.57 314.531 1240.12 323.573C1250.67 332.616 1267.09 337.137 1289.37 337.137C1309.61 337.137 1324.95 332.347 1335.39 322.766C1345.94 313.185 1351.22 301.666 1351.22 288.21C1351.22 280.029 1349.39 273.085 1345.73 267.38C1342.07 261.566 1336.95 256.507 1330.39 252.201C1323.82 247.787 1311.39 242.458 1293.09 236.215C1274.89 229.863 1262.08 224.319 1254.65 219.582C1247.33 214.738 1241.2 207.526 1236.25 197.945C1231.29 188.256 1228.82 178.406 1228.82 168.394C1228.82 149.986 1235.12 134.538 1247.71 122.051C1260.41 109.563 1277.05 103.319 1297.61 103.319C1305.57 103.319 1314.18 104.234 1323.44 106.064C1332.7 107.894 1339.16 109.402 1340.24 109.94Z" fill="#414141" fill-opacity="0.85"/>
<path d="M632.09 94.7271L620.98 123.927H618.758C619.181 122.177 619.393 119.825 619.393 116.873C619.393 114.357 618.493 112.772 616.695 112.116C615.002 111.35 612.251 110.967 608.441 110.967H547.335V317.824C547.335 326.354 547.97 332.205 549.239 335.377C550.615 338.439 552.414 340.407 554.636 341.282C556.964 342.048 560.667 342.43 565.746 342.43V344.727H502.418V342.43C510.353 341.884 515.327 340.298 517.337 337.673C519.347 335.049 520.353 329.58 520.353 321.269V110.967H461.786C455.86 110.967 451.998 111.35 450.199 112.116C448.4 112.772 447.501 114.521 447.501 117.365C447.501 118.787 447.924 120.974 448.771 123.927H446.549L435.438 94.7271H437.661C439.565 98.6641 441.417 101.07 443.216 101.945C445.12 102.71 449.141 103.093 455.278 103.093H610.663C616.8 103.093 621.192 102.71 623.837 101.945C626.588 101.07 628.599 98.6641 629.868 94.7271H632.09Z" fill="#414141" fill-opacity="0.85"/>
<path d="M233.164 232.576L207.461 258.279L388.372 439.19C273.304 272.715 273.304 166.733 388.376 0.254883L207.461 181.169L233.164 206.872L273.304 166.733C265.37 201.58 265.37 237.868 273.304 272.715L233.164 232.576Z" fill="#FEBC19"/>
<path d="M0.836914 439.199C115.915 272.716 115.915 166.733 0.852095 0.263384L181.758 181.169L156.054 206.872L115.915 166.733C123.849 201.58 123.849 237.868 115.915 272.716L156.055 232.576L181.758 258.279L0.836914 439.199Z" fill="#FEBC19"/>
<path d="M220.309 219.728L194.606 245.431L168.903 219.728L194.606 194.024L220.309 219.728Z" fill="#FEBC19"/>
</svg>
