<svg width="19" height="20" viewBox="0 0 19 20" fill="none" xmlns="http://www.w3.org/2000/svg">
<path d="M12.7837 3.86561C12.7837 5.73293 11.2994 7.23121 9.48732 7.23121C7.67525 7.23121 6.19092 5.73293 6.19092 3.86561C6.19092 1.99828 7.67525 0.5 9.48732 0.5C11.2994 0.5 12.7837 1.99828 12.7837 3.86561ZM9.49999 9.38966C12.6343 9.38966 15.5673 10.8246 17.6754 13.3167C17.8841 13.5633 17.9238 13.9182 17.7725 14.2081C16.0724 17.4651 12.9416 19.5 9.49999 19.5C6.05856 19.5 2.92772 17.4653 1.228 14.2094C1.07672 13.9197 1.11639 13.565 1.32486 13.3183C3.43205 10.825 6.36517 9.38966 9.49999 9.38966Z" stroke="#969696"/>
</svg>
